<svg xmlns="http://www.w3.org/2000/svg" width="160" height="160" viewBox="0 0 20 20">
  <title>blazingly fast flame</title>
  <defs>
    <linearGradient id="workflow-fill" x1="50%" y1="0%" x2="50%" y2="100%">
      <stop stop-color="#505862" offset="0%" />
      <stop stop-color="#2D3338" offset="100%" />
    </linearGradient>
  </defs>
  <rect width="20" height="20" rx="4" fill="url(#workflow-fill)" />
  <path
    fill="#CBD2DD"
    d="M11 2c-2.083 2.22-3.5 4.68-3.5 6.98 0 3 2.313 5.02 5.5 5.02s5.5-2.02 5.5-5.02c0-2.14-1.228-4.48-3.2-6.64-.18.94-.54 1.82-1.04 2.59.06-1.33-.29-2.62-1.26-3.93.02.67-.17 1.3-.5 1.97-.33.69-.77 1.42-1 2.29C11.63 4.12 11.32 3.06 11 2z"
    transform="translate(-3 2.5)"
  />
</svg>
